<?xml version="1.0" encoding="UTF-8"?>
<svg width="193px" height="52px" viewBox="0 0 193 52" version="1.1" xmlns="http://www.w3.org/2000/svg" xmlns:xlink="http://www.w3.org/1999/xlink">
    <!-- Generator: Sketch 55.2 (78181) - https://sketchapp.com -->
    <title>group-logo-CHUV-hachure-black@3x</title>
    <desc>Created with Sketch.</desc>
    <defs>
        <polygon id="path-1" points="0 -7.10542736e-15 97.22874 -7.10542736e-15 97.22874 48.371722 0 48.371722"/>
    </defs>
    <g id="Symbols" stroke="none" stroke-width="1" fill="none" fill-rule="evenodd">
        <g id="group-logo-CHUV-hachure/black" transform="translate(0.000000, -4.000000)">
            <g id="group-logo-CHUV-hachure-black">
                <g id="black" transform="translate(0.000000, 4.000000)">
                    <g>
                        <mask id="mask-2" fill="white">
                            <use xlink:href="#path-1"/>
                        </mask>
                        <g id="Clip-2"/>
                        <path d="M59.134964,-7.10542736e-15 L57.832544,-7.10542736e-15 L59.134964,2.14032 L59.134964,-7.10542736e-15 Z M35.223944,20.2272 L22.914164,-7.10542736e-15 L21.581364,-7.10542736e-15 L33.885264,20.2272 L35.223944,20.2272 Z M26.974304,12.08634 L19.617444,-7.10542736e-15 L18.282684,-7.10542736e-15 L25.634644,12.08634 L26.974304,12.08634 Z M35.765884,28.17892 L35.425824,28.17892 L35.765884,28.7385 L35.765884,28.17892 Z M59.134964,5.35962 L55.868624,-7.10542736e-15 L54.535824,-7.10542736e-15 L59.134964,7.55972 L59.134964,5.35962 Z M28.324744,20.2272 L28.625604,20.2272 L28.324744,19.72642 L28.324744,20.2272 Z M31.923304,20.2272 L28.324744,14.308 L28.324744,16.5081 L30.583644,20.2272 L31.923304,20.2272 Z M59.134964,16.19254 L49.280084,-7.10542736e-15 L47.945324,-7.10542736e-15 L59.134964,18.3946 L59.134964,16.19254 Z M43.452024,12.08634 L36.099084,-7.10542736e-15 L34.757464,-7.10542736e-15 L42.116284,12.08634 L43.452024,12.08634 Z M59.134964,10.77608 L52.578764,-7.10542736e-15 L51.240084,-7.10542736e-15 L59.134964,12.9752 L59.134964,10.77608 Z M35.765884,15.71038 L26.210884,-7.10542736e-15 L24.876124,-7.10542736e-15 L35.765884,17.9046 L35.765884,15.71038 Z M35.765884,12.08634 L36.858584,12.08634 L29.505644,-7.10542736e-15 L28.165004,-7.10542736e-15 L35.765884,12.49598 L35.765884,12.08634 Z M40.158244,12.08634 L32.800404,-7.10542736e-15 L31.463684,-7.10542736e-15 L38.819564,12.08634 L40.158244,12.08634 Z M32.132044,28.17892 L35.765884,34.15888 L35.765884,31.96172 L33.464844,28.17892 L32.132044,28.17892 Z M37.064384,36.28548 L44.420264,48.37182 L45.754044,48.37182 L38.401104,36.28548 L37.064384,36.28548 Z M28.324744,32.75258 L37.827804,48.37182 L39.160604,48.37182 L28.324744,30.55346 L28.324744,32.75258 Z M23.675624,12.08634 L16.321704,-7.10542736e-15 L14.988904,-7.10542736e-15 L22.340864,12.08634 L23.675624,12.08634 Z M40.358164,36.28548 L47.709144,48.37182 L49.048804,48.37182 L41.692924,36.28548 L40.358164,36.28548 Z M88.088084,12.08634 L77.468804,29.5862 L77.468804,12.08634 L69.310304,12.08634 L69.310304,36.27862 L82.510904,36.27862 L97.229524,12.08634 L88.088084,12.08634 Z M44.799524,36.28548 L43.657824,36.28548 L51.010764,48.37182 L52.352384,48.37182 L44.799524,35.9709 L44.799524,36.28548 Z M59.144764,27.51056 C59.144764,27.5282 59.134964,27.53604 59.134964,27.55956 L59.134964,27.02742 L52.959004,16.87854 L52.959004,13.65434 L59.134964,23.8091 L59.134964,21.60998 L45.985324,-7.10542736e-15 L44.653504,-7.10542736e-15 L52.006444,12.08634 L50.042524,12.08634 L42.691544,-7.10542736e-15 L41.349924,-7.10542736e-15 L48.707764,12.08634 L46.751684,12.08634 L39.397764,-7.10542736e-15 L38.059084,-7.10542736e-15 L45.413004,12.08634 L44.799524,12.08634 L44.799524,32.75356 L44.885764,32.8986 C45.068044,33.84822 45.596264,34.67044 46.339104,35.27804 L54.302584,48.37182 L55.642244,48.37182 L48.228544,36.18748 C48.526464,36.24726 48.834184,36.28548 49.153664,36.28548 L50.242444,36.28548 L57.597344,48.37182 L58.937984,48.37182 L51.582104,36.28548 L53.543084,36.28548 L59.134964,45.47592 L59.134964,43.27876 L54.878824,36.28548 L56.837844,36.28548 L59.134964,40.06338 L59.134964,37.86132 L58.176524,36.28548 L62.951084,36.28548 C65.350124,36.28548 67.296404,34.4372 67.296404,32.1587 L67.296404,12.08634 L59.144764,12.08634 L59.144764,27.51056 Z M54.770044,29.2285 C54.335904,29.2285 54.002704,29.12658 53.724384,28.97566 L53.003104,27.7781 C52.987424,27.68598 52.959004,27.6115 52.959004,27.51056 L52.959004,24.49706 L55.842164,29.2285 L54.770044,29.2285 Z M57.332744,29.2285 L57.177904,29.2285 L52.959004,22.29696 L52.959004,19.08452 L58.778244,28.64736 C58.484244,29.01976 58.011884,29.2285 57.332744,29.2285 L57.332744,29.2285 Z M28.826504,28.17892 L41.117664,48.37182 L42.458304,48.37182 L30.168124,28.17892 L28.826504,28.17892 Z M8.164184,42.95536 L11.456004,48.37182 L12.797624,48.37182 L8.173004,40.7729 L8.164184,42.95536 Z M8.164184,48.37182 L9.499924,48.37182 L8.173004,46.19426 L8.164184,48.37182 Z M19.308744,36.28548 L19.308744,29.2187 L17.617264,29.2187 L11.496184,19.15312 L13.457164,19.15312 L19.308744,28.77672 L19.308744,26.57662 L14.798784,19.15312 L16.749964,19.15312 L19.308744,23.36124 L19.308744,21.16114 L18.088644,19.15312 L19.308744,19.15312 L19.308744,12.08634 L20.381844,12.08634 L13.025964,-7.10542736e-15 L11.690224,-7.10542736e-15 L19.042184,12.08634 L17.087084,12.08634 L9.731204,-7.10542736e-15 L8.396444,-7.10542736e-15 L15.750364,12.08634 L13.789384,12.08634 L8.173004,2.85866 L8.164184,5.03622 L12.449724,12.08634 L10.500504,12.08634 L8.173004,8.27022 L8.164184,10.45366 L9.155944,12.08634 L3.822784,12.08634 C1.422764,12.08634 -0.000196,13.93462 -0.000196,16.21116 L-0.000196,32.1587 C-0.000196,34.4372 1.946084,36.28548 4.348064,36.28548 L8.164184,36.28548 L8.162224,37.53792 L14.756644,48.37182 L16.096304,48.37182 L8.737484,36.28548 L10.699444,36.28548 L18.048464,48.37182 L19.389104,48.37182 L12.034204,36.28548 L13.991264,36.28548 L21.346164,48.37182 L22.683864,48.37182 L15.329944,36.28548 L17.284064,36.28548 L24.640924,48.37182 L25.982544,48.37182 L18.626664,36.28548 L19.308744,36.28548 Z M11.026764,29.2187 L8.173004,24.52548 L8.164184,26.70794 L9.665544,29.1795 C8.682604,29.07758 8.157324,28.52878 8.157324,27.50076 L8.157324,20.86126 C8.157324,20.83578 8.164184,20.825 8.164184,20.80246 L8.164184,21.29442 L12.987744,29.2187 L11.026764,29.2187 Z M14.329364,29.2187 L8.528744,19.69114 C8.806084,19.3697 9.238264,19.18644 9.841944,19.15312 L10.156524,19.15312 L16.281524,29.2187 L14.329364,29.2187 Z M28.324744,36.28548 L27.178144,36.28548 L34.532064,48.37182 L35.869764,48.37182 L28.324744,35.9709 L28.324744,36.28548 Z M20.582744,36.28548 L27.938624,48.37182 L29.274364,48.37182 L21.922404,36.28548 L20.582744,36.28548 Z M23.877504,36.28548 L31.236324,48.37182 L32.575004,48.37182 L25.219124,36.28548 L23.877504,36.28548 Z" id="Fill-1" fill="#1D1D1B" mask="url(#mask-2)"/>
                    </g>
                </g>
                <path d="M128.936,15.744 C128.936,15.84 128.872,15.952 128.776,15.968 C128.36,16.032 127.16,16.112 125.656,16.112 C123.944,16.112 122.248,15.776 122.248,13.136 L122.248,4.432 C122.248,4.256 122.392,4.112 122.568,4.112 L123.384,4.112 C123.56,4.112 123.704,4.256 123.704,4.432 L123.704,13.136 C123.704,14.352 123.976,14.8 125.672,14.8 L128.76,14.8 C128.872,14.8 128.936,14.88 128.936,14.992 L128.936,15.744 Z M136.44,15.68 C136.44,15.856 136.296,16 136.12,16 L135.384,16 C135.208,16 135.064,15.856 135.064,15.68 L135.064,15.328 C134.296,15.776 133.496,16.112 132.6,16.112 C131.24,16.112 129.992,15.52 129.992,13.52 L129.992,13.328 C129.992,11.6 131,10.736 133.848,10.736 L135.032,10.736 L135.032,10.096 C135.032,8.752 134.568,8.288 133.32,8.288 C132.28,8.288 131.512,8.352 130.872,8.416 L130.792,8.416 C130.648,8.416 130.504,8.368 130.504,8.16 L130.504,7.6 C130.504,7.424 130.616,7.328 130.84,7.296 C131.496,7.184 132.232,7.088 133.32,7.088 C135.544,7.088 136.44,8.208 136.44,10.096 L136.44,15.68 Z M135.032,14.32 L135.032,11.744 L133.848,11.744 C131.912,11.744 131.4,12.176 131.4,13.312 L131.4,13.504 C131.4,14.656 131.944,14.96 132.872,14.96 C133.608,14.96 134.264,14.736 135.032,14.32 Z M145.352,15.68 C145.352,15.856 145.224,16 145.048,16 L144.248,16 C144.072,16 143.944,15.856 143.944,15.68 L143.944,15.376 C143.064,15.872 142.344,16.112 141.4,16.112 C139.48,16.112 138.616,14.912 138.616,12.784 L138.616,7.52 C138.616,7.344 138.76,7.2 138.936,7.2 L139.704,7.2 C139.88,7.2 140.024,7.344 140.024,7.52 L140.024,12.784 C140.024,14.4 140.568,14.896 141.784,14.896 C142.456,14.896 143.208,14.64 143.944,14.272 L143.944,7.52 C143.944,7.36 144.088,7.2 144.264,7.2 L145.048,7.2 C145.208,7.2 145.352,7.344 145.352,7.52 L145.352,15.68 Z M153.096,13.792 C153.096,15.424 151.896,16.112 150.104,16.112 C149.512,16.112 148.36,16.064 147.576,15.872 C147.368,15.824 147.24,15.728 147.24,15.552 L147.24,14.992 C147.24,14.848 147.368,14.752 147.528,14.752 L147.592,14.752 C148.36,14.848 149.528,14.928 150.104,14.928 C151.144,14.928 151.688,14.656 151.688,13.792 C151.688,13.312 151.4,13.008 150.488,12.464 L148.872,11.504 C147.896,10.912 147.24,10.224 147.24,9.216 C147.24,7.552 148.488,7.088 150.136,7.088 C151.032,7.088 151.88,7.168 152.632,7.296 C152.84,7.328 152.936,7.44 152.936,7.616 L152.936,8.144 C152.936,8.336 152.824,8.416 152.664,8.416 L152.616,8.416 C152.056,8.368 151.032,8.288 150.136,8.288 C149.24,8.288 148.648,8.4 148.648,9.216 C148.648,9.696 149.016,10 149.752,10.432 L151.336,11.376 C152.664,12.16 153.096,12.848 153.096,13.792 Z M161.112,15.68 C161.112,15.856 160.968,16 160.792,16 L160.056,16 C159.88,16 159.736,15.856 159.736,15.68 L159.736,15.328 C158.968,15.776 158.168,16.112 157.272,16.112 C155.912,16.112 154.664,15.52 154.664,13.52 L154.664,13.328 C154.664,11.6 155.672,10.736 158.52,10.736 L159.704,10.736 L159.704,10.096 C159.704,8.752 159.24,8.288 157.992,8.288 C156.952,8.288 156.184,8.352 155.544,8.416 L155.464,8.416 C155.32,8.416 155.176,8.368 155.176,8.16 L155.176,7.6 C155.176,7.424 155.288,7.328 155.512,7.296 C156.168,7.184 156.904,7.088 157.992,7.088 C160.216,7.088 161.112,8.208 161.112,10.096 L161.112,15.68 Z M159.704,14.32 L159.704,11.744 L158.52,11.744 C156.584,11.744 156.072,12.176 156.072,13.312 L156.072,13.504 C156.072,14.656 156.616,14.96 157.544,14.96 C158.28,14.96 158.936,14.736 159.704,14.32 Z M170.024,15.68 C170.024,15.856 169.88,16 169.704,16 L168.936,16 C168.76,16 168.616,15.856 168.616,15.68 L168.616,10.416 C168.616,8.8 168.072,8.304 166.856,8.304 C166.184,8.304 165.432,8.56 164.696,8.928 L164.696,15.68 C164.696,15.84 164.552,16 164.376,16 L163.592,16 C163.432,16 163.288,15.856 163.288,15.68 L163.288,7.52 C163.288,7.344 163.416,7.2 163.592,7.2 L164.392,7.2 C164.568,7.2 164.696,7.344 164.696,7.52 L164.696,7.824 C165.576,7.328 166.296,7.088 167.24,7.088 C169.16,7.088 170.024,8.288 170.024,10.416 L170.024,15.68 Z M178.936,15.68 C178.936,15.856 178.792,16 178.616,16 L177.848,16 C177.672,16 177.528,15.856 177.528,15.68 L177.528,10.416 C177.528,8.8 176.984,8.304 175.768,8.304 C175.096,8.304 174.344,8.56 173.608,8.928 L173.608,15.68 C173.608,15.84 173.464,16 173.288,16 L172.504,16 C172.344,16 172.2,15.856 172.2,15.68 L172.2,7.52 C172.2,7.344 172.328,7.2 172.504,7.2 L173.304,7.2 C173.48,7.2 173.608,7.344 173.608,7.52 L173.608,7.824 C174.488,7.328 175.208,7.088 176.152,7.088 C178.072,7.088 178.936,8.288 178.936,10.416 L178.936,15.68 Z M187.896,11.696 C187.896,11.904 187.784,12.048 187.592,12.048 L182.232,12.048 L182.232,12.272 C182.232,14.176 182.984,14.88 184.456,14.88 C185.384,14.88 186.568,14.816 187.304,14.704 L187.384,14.704 C187.512,14.704 187.64,14.768 187.64,14.928 L187.64,15.472 C187.64,15.68 187.576,15.792 187.32,15.84 C186.408,16.016 185.528,16.112 184.456,16.112 C182.616,16.112 180.824,15.248 180.824,12.272 L180.824,10.832 C180.824,8.544 182.088,7.088 184.376,7.088 C186.712,7.088 187.896,8.56 187.896,10.832 L187.896,11.696 Z M186.472,10.976 L186.472,10.832 C186.472,9.024 185.784,8.32 184.376,8.32 C183,8.32 182.232,9.104 182.232,10.832 L182.232,10.976 L186.472,10.976 Z M130.392,29.68 C130.392,32.736 128.888,34.112 126.296,34.112 C123.704,34.112 122.2,32.736 122.2,29.68 L122.2,22.416 C122.2,22.256 122.328,22.112 122.504,22.112 L123.368,22.112 C123.528,22.112 123.672,22.24 123.672,22.416 L123.672,29.68 C123.672,31.744 124.312,32.864 126.296,32.864 C128.28,32.864 128.92,31.76 128.92,29.68 L128.92,22.416 C128.92,22.256 129.048,22.112 129.224,22.112 L130.088,22.112 C130.248,22.112 130.392,22.24 130.392,22.416 L130.392,29.68 Z M139.416,33.68 C139.416,33.856 139.272,34 139.096,34 L138.328,34 C138.152,34 138.008,33.856 138.008,33.68 L138.008,28.416 C138.008,26.8 137.464,26.304 136.248,26.304 C135.576,26.304 134.824,26.56 134.088,26.928 L134.088,33.68 C134.088,33.84 133.944,34 133.768,34 L132.984,34 C132.824,34 132.68,33.856 132.68,33.68 L132.68,25.52 C132.68,25.344 132.808,25.2 132.984,25.2 L133.784,25.2 C133.96,25.2 134.088,25.344 134.088,25.52 L134.088,25.824 C134.968,25.328 135.688,25.088 136.632,25.088 C138.552,25.088 139.416,26.288 139.416,28.416 L139.416,33.68 Z M143.208,23.472 C143.208,23.648 143.064,23.792 142.888,23.792 L142.072,23.792 C141.896,23.792 141.752,23.648 141.752,23.472 L141.752,22.192 C141.752,22.016 141.896,21.872 142.072,21.872 L142.888,21.872 C143.064,21.872 143.208,22.016 143.208,22.192 L143.208,23.472 Z M143.176,33.68 C143.176,33.856 143.032,34 142.856,34 L142.088,34 C141.912,34 141.768,33.856 141.768,33.68 L141.768,25.52 C141.768,25.344 141.912,25.2 142.088,25.2 L142.856,25.2 C143.032,25.2 143.176,25.344 143.176,25.52 L143.176,33.68 Z M152.312,25.472 C152.312,25.504 152.312,25.536 152.296,25.584 L150.136,33.2 C149.928,33.92 149.384,34.112 148.696,34.112 C148.008,34.112 147.464,33.92 147.256,33.2 L145.096,25.584 C145.08,25.536 145.08,25.504 145.08,25.472 C145.08,25.312 145.176,25.2 145.336,25.2 L146.216,25.2 C146.344,25.2 146.456,25.296 146.52,25.504 L148.36,32.48 C148.456,32.864 148.536,32.944 148.696,32.944 C148.84,32.944 148.936,32.864 149.032,32.48 L150.872,25.504 C150.936,25.296 151.048,25.2 151.176,25.2 L152.056,25.2 C152.216,25.2 152.312,25.312 152.312,25.472 Z M160.488,29.696 C160.488,29.904 160.376,30.048 160.184,30.048 L154.824,30.048 L154.824,30.272 C154.824,32.176 155.576,32.88 157.048,32.88 C157.976,32.88 159.16,32.816 159.896,32.704 L159.976,32.704 C160.104,32.704 160.232,32.768 160.232,32.928 L160.232,33.472 C160.232,33.68 160.168,33.792 159.912,33.84 C159,34.016 158.12,34.112 157.048,34.112 C155.208,34.112 153.416,33.248 153.416,30.272 L153.416,28.832 C153.416,26.544 154.68,25.088 156.968,25.088 C159.304,25.088 160.488,26.56 160.488,28.832 L160.488,29.696 Z M159.064,28.976 L159.064,28.832 C159.064,27.024 158.376,26.32 156.968,26.32 C155.592,26.32 154.824,27.104 154.824,28.832 L154.824,28.976 L159.064,28.976 Z M166.36,26.032 C166.36,26.208 166.248,26.304 166.024,26.304 C165.288,26.304 164.616,26.496 163.816,26.976 L163.816,33.68 C163.816,33.84 163.672,34 163.496,34 L162.712,34 C162.552,34 162.408,33.856 162.408,33.68 L162.408,25.52 C162.408,25.344 162.536,25.2 162.712,25.2 L163.464,25.2 C163.64,25.2 163.768,25.344 163.768,25.52 L163.768,25.856 C164.568,25.296 165.304,25.088 166.024,25.088 C166.248,25.088 166.36,25.184 166.36,25.376 L166.36,26.032 Z M173.448,31.792 C173.448,33.424 172.248,34.112 170.456,34.112 C169.864,34.112 168.712,34.064 167.928,33.872 C167.72,33.824 167.592,33.728 167.592,33.552 L167.592,32.992 C167.592,32.848 167.72,32.752 167.88,32.752 L167.944,32.752 C168.712,32.848 169.88,32.928 170.456,32.928 C171.496,32.928 172.04,32.656 172.04,31.792 C172.04,31.312 171.752,31.008 170.84,30.464 L169.224,29.504 C168.248,28.912 167.592,28.224 167.592,27.216 C167.592,25.552 168.84,25.088 170.488,25.088 C171.384,25.088 172.232,25.168 172.984,25.296 C173.192,25.328 173.288,25.44 173.288,25.616 L173.288,26.144 C173.288,26.336 173.176,26.416 173.016,26.416 L172.968,26.416 C172.408,26.368 171.384,26.288 170.488,26.288 C169.592,26.288 169,26.4 169,27.216 C169,27.696 169.368,28 170.104,28.432 L171.688,29.376 C173.016,30.16 173.448,30.848 173.448,31.792 Z M176.952,23.472 C176.952,23.648 176.808,23.792 176.632,23.792 L175.816,23.792 C175.64,23.792 175.496,23.648 175.496,23.472 L175.496,22.192 C175.496,22.016 175.64,21.872 175.816,21.872 L176.632,21.872 C176.808,21.872 176.952,22.016 176.952,22.192 L176.952,23.472 Z M176.92,33.68 C176.92,33.856 176.776,34 176.6,34 L175.832,34 C175.656,34 175.512,33.856 175.512,33.68 L175.512,25.52 C175.512,25.344 175.656,25.2 175.832,25.2 L176.6,25.2 C176.776,25.2 176.92,25.344 176.92,25.52 L176.92,33.68 Z M183.96,33.76 C183.96,33.904 183.88,34 183.672,34.032 C183.352,34.08 182.936,34.112 182.632,34.112 C181.16,34.112 180.456,33.728 180.456,31.968 L180.456,26.384 L178.904,26.208 C178.728,26.192 178.6,26.096 178.6,25.92 L178.6,25.488 C178.6,25.312 178.728,25.2 178.904,25.2 L180.456,25.2 L180.456,23.632 C180.456,23.472 180.568,23.344 180.744,23.312 L181.576,23.184 L181.624,23.184 C181.752,23.184 181.864,23.296 181.864,23.456 L181.864,25.2 L183.592,25.2 C183.768,25.2 183.912,25.344 183.912,25.52 L183.912,26.064 C183.912,26.24 183.768,26.384 183.592,26.384 L181.864,26.384 L181.864,31.968 C181.864,32.848 182.088,32.976 182.728,32.976 L183.624,32.976 C183.848,32.976 183.96,33.04 183.96,33.2 L183.96,33.76 Z M192.28,25.472 C192.28,25.504 192.28,25.552 192.264,25.584 L189.624,34.8 C189.128,36.528 188.536,37.168 186.696,37.168 C186.248,37.168 185.688,37.104 185.352,37.024 C185.16,36.976 185.016,36.928 185.016,36.768 L185.016,36.176 C185.016,36 185.144,35.92 185.32,35.92 L185.368,35.92 C185.72,35.952 186.44,36.016 186.792,36.016 C187.704,36.016 188.104,35.776 188.376,34.656 L188.536,34 L188.312,34 C187.832,34 187.416,33.888 187.128,32.896 L185,25.584 C184.984,25.552 184.984,25.504 184.984,25.472 C184.984,25.312 185.08,25.2 185.272,25.2 L186.152,25.2 C186.28,25.2 186.392,25.328 186.424,25.456 L188.312,32.4 C188.392,32.72 188.504,32.752 188.616,32.752 L188.872,32.752 L190.824,25.44 C190.856,25.312 190.984,25.2 191.128,25.2 L192.024,25.2 C192.184,25.2 192.28,25.312 192.28,25.472 Z M130.632,51.68 C130.632,51.856 130.488,52 130.312,52 L129.496,52 C129.32,52 129.176,51.856 129.176,51.68 L129.176,46.368 L123.704,46.368 L123.704,51.68 C123.704,51.856 123.56,52 123.384,52 L122.568,52 C122.392,52 122.248,51.856 122.248,51.68 L122.248,40.432 C122.248,40.256 122.392,40.112 122.568,40.112 L123.384,40.112 C123.56,40.112 123.704,40.256 123.704,40.432 L123.704,45.072 L129.176,45.072 L129.176,40.432 C129.176,40.256 129.32,40.112 129.496,40.112 L130.312,40.112 C130.488,40.112 130.632,40.256 130.632,40.432 L130.632,51.68 Z M139.8,48.208 C139.8,50.56 138.584,52.112 136.232,52.112 C133.88,52.112 132.68,50.56 132.68,48.208 L132.68,46.992 C132.68,44.64 133.88,43.088 136.232,43.088 C138.584,43.088 139.8,44.64 139.8,46.992 L139.8,48.208 Z M138.392,48.208 L138.392,46.992 C138.392,45.36 137.736,44.32 136.232,44.32 C134.744,44.32 134.088,45.344 134.088,46.992 L134.088,48.208 C134.088,49.84 134.728,50.88 136.232,50.88 C137.72,50.88 138.392,49.856 138.392,48.208 Z M147.256,49.792 C147.256,51.424 146.056,52.112 144.264,52.112 C143.672,52.112 142.52,52.064 141.736,51.872 C141.528,51.824 141.4,51.728 141.4,51.552 L141.4,50.992 C141.4,50.848 141.528,50.752 141.688,50.752 L141.752,50.752 C142.52,50.848 143.688,50.928 144.264,50.928 C145.304,50.928 145.848,50.656 145.848,49.792 C145.848,49.312 145.56,49.008 144.648,48.464 L143.032,47.504 C142.056,46.912 141.4,46.224 141.4,45.216 C141.4,43.552 142.648,43.088 144.296,43.088 C145.192,43.088 146.04,43.168 146.792,43.296 C147,43.328 147.096,43.44 147.096,43.616 L147.096,44.144 C147.096,44.336 146.984,44.416 146.824,44.416 L146.776,44.416 C146.216,44.368 145.192,44.288 144.296,44.288 C143.4,44.288 142.808,44.4 142.808,45.216 C142.808,45.696 143.176,46 143.912,46.432 L145.496,47.376 C146.824,48.16 147.256,48.848 147.256,49.792 Z M155.912,48.192 C155.912,50.704 154.76,52.112 152.424,52.112 C151.928,52.112 151.176,52.048 150.552,51.936 L150.552,54.832 C150.552,54.992 150.424,55.136 150.248,55.136 L149.432,55.136 C149.272,55.136 149.144,55.008 149.144,54.832 L149.144,43.824 C149.144,43.616 149.192,43.52 149.48,43.456 C150.328,43.248 151.448,43.088 152.424,43.088 C154.808,43.088 155.912,44.64 155.912,47.04 L155.912,48.192 Z M154.504,48.192 L154.504,47.04 C154.504,45.36 154.008,44.272 152.424,44.272 C151.752,44.272 151,44.352 150.552,44.432 L150.552,50.768 C151.08,50.864 151.912,50.928 152.424,50.928 C153.992,50.928 154.504,49.904 154.504,48.192 Z M159.416,41.472 C159.416,41.648 159.272,41.792 159.096,41.792 L158.28,41.792 C158.104,41.792 157.96,41.648 157.96,41.472 L157.96,40.192 C157.96,40.016 158.104,39.872 158.28,39.872 L159.096,39.872 C159.272,39.872 159.416,40.016 159.416,40.192 L159.416,41.472 Z M159.384,51.68 C159.384,51.856 159.24,52 159.064,52 L158.296,52 C158.12,52 157.976,51.856 157.976,51.68 L157.976,43.52 C157.976,43.344 158.12,43.2 158.296,43.2 L159.064,43.2 C159.24,43.2 159.384,43.344 159.384,43.52 L159.384,51.68 Z M166.424,51.76 C166.424,51.904 166.344,52 166.136,52.032 C165.816,52.08 165.4,52.112 165.096,52.112 C163.624,52.112 162.92,51.728 162.92,49.968 L162.92,44.384 L161.368,44.208 C161.192,44.192 161.064,44.096 161.064,43.92 L161.064,43.488 C161.064,43.312 161.192,43.2 161.368,43.2 L162.92,43.2 L162.92,41.632 C162.92,41.472 163.032,41.344 163.208,41.312 L164.04,41.184 L164.088,41.184 C164.216,41.184 164.328,41.296 164.328,41.456 L164.328,43.2 L166.056,43.2 C166.232,43.2 166.376,43.344 166.376,43.52 L166.376,44.064 C166.376,44.24 166.232,44.384 166.056,44.384 L164.328,44.384 L164.328,49.968 C164.328,50.848 164.552,50.976 165.192,50.976 L166.088,50.976 C166.312,50.976 166.424,51.04 166.424,51.2 L166.424,51.76 Z M174.04,51.68 C174.04,51.856 173.896,52 173.72,52 L172.984,52 C172.808,52 172.664,51.856 172.664,51.68 L172.664,51.328 C171.896,51.776 171.096,52.112 170.2,52.112 C168.84,52.112 167.592,51.52 167.592,49.52 L167.592,49.328 C167.592,47.6 168.6,46.736 171.448,46.736 L172.632,46.736 L172.632,46.096 C172.632,44.752 172.168,44.288 170.92,44.288 C169.88,44.288 169.112,44.352 168.472,44.416 L168.392,44.416 C168.248,44.416 168.104,44.368 168.104,44.16 L168.104,43.6 C168.104,43.424 168.216,43.328 168.44,43.296 C169.096,43.184 169.832,43.088 170.92,43.088 C173.144,43.088 174.04,44.208 174.04,46.096 L174.04,51.68 Z M172.632,50.32 L172.632,47.744 L171.448,47.744 C169.512,47.744 169,48.176 169,49.312 L169,49.504 C169,50.656 169.544,50.96 170.472,50.96 C171.208,50.96 171.864,50.736 172.632,50.32 Z M177.784,51.68 C177.784,51.84 177.672,52 177.496,52 L176.664,52 C176.504,52 176.376,51.856 176.376,51.68 L176.376,40.272 C176.376,40.112 176.488,39.968 176.664,39.968 L177.496,39.968 C177.656,39.968 177.784,40.096 177.784,40.272 L177.784,51.68 Z" id="LausanneUniversityHospital" fill="#1D1D1B" fill-rule="nonzero"/>
            </g>
        </g>
    </g>
</svg>