<svg height="228.96pt" stroke-linejoin="round" viewBox="0 0 230.4 228.96" width="230.4pt" xmlns="http://www.w3.org/2000/svg" xmlns:xlink="http://www.w3.org/1999/xlink"><clipPath id="a" stroke-linejoin="round"><path d="m3.6 3.6h223.2v221.76h-223.2z"/></clipPath><g stroke-linejoin="round"><path d="m0 228.96h230.4v-228.96h-230.4z" fill="none"/><g><path clip-path="url(#a)" d="m-41.7375 215.718261v-.000052l.314189-.000003.314189-.000003.31419-.000003.314189-.000003.314189-.000003.314189-.000003.314189-.000004.31419-.000003.314189-.000004.314189-.000004.314189-.000004.314189-.000005.314189-.000005.31419-.000004.314189-.000006.314189-.000005.314189-.000006.314189-.000005.31419-.000007.314189-.000006.314189-.000007.314189-.000007.314189-.000007.31419-.000008.314189-.000008.314189-.000009.314189-.000009.314189-.000009.314189-.00001.31419-.00001.314189-.000011.314189-.000011.314189-.000012.314189-.000012.31419-.000013.314189-.000013.314189-.000014.314189-.000015.314189-.000015.31419-.000016.314189-.000017.314189-.000017.314189-.000019.314189-.000019.31419-.00002.314189-.000021.314189-.000022.314189-.000023.314189-.000023.314189-.000025.31419-.000026.314189-.000028.314189-.000028.314189-.00003.314189-.000031.31419-.000032.314189-.000034.314189-.000035.314189-.000037.314189-.000039.31419-.00004.314189-.000042.314189-.000043.314189-.000046.314189-.000048.314189-.000049.31419-.000052.314189-.000054.314189-.000056.314189-.000059.314189-.000062.31419-.000064.314189-.000066.314189-.00007.314189-.000072.314189-.000076.31419-.000079.314189-.000082.314189-.000085.314189-.00009.314189-.000093.31419-.000096.314189-.000101.314189-.000105.314189-.00011.314189-.000114.314189-.000119.31419-.000123.314189-.000129.314189-.000134.314189-.00014.314189-.000145.31419-.000152.314189-.000157.314189-.000164.314189-.000171.314189-.000177.31419-.000185.314189-.000192.314189-.0002.314189-.000208.314189-.000217.314189-.000225.31419-.000234.314189-.000243.314189-.000253.314189-.000263.314189-.000274.31419-.000284.314189-.000296.314189-.000307.314189-.000319.314189-.000332.31419-.000345.314189-.000358.314189-.000373.314189-.000386.314189-.000402.31419-.000417.314189-.000433.314189-.00045.314189-.000468.314189-.000485.314189-.000504.31419-.000523.314189-.000542.314189-.000564.314189-.000585.314189-.000606.31419-.00063.314189-.000654.314189-.000678.314189-.000703.314189-.000729.31419-.000757.314189-.000785.314189-.000814.314189-.000844.314189-.000875.314189-.000908.31419-.000941.314189-.000975.314189-.001011.314189-.001047.314189-.001086.31419-.001125.314189-.001166.314189-.001208.314189-.001252.314189-.001296.31419-.001343.314189-.001391.314189-.001441.314189-.001491.314189-.001545.31419-.001599.314189-.001656.314189-.001714.314189-.001774.314189-.001837.314189-.0019.31419-.001967.314189-.002035.314189-.002106.314189-.002179.314189-.002253.31419-.002331.314189-.002412.314189-.002493.314189-.002579.314189-.002667.31419-.002757.314189-.002851.314189-.002947.314189-.003046.314189-.003149.314189-.003254.31419-.003363.314189-.003475.314189-.00359.314189-.00371.314189-.003832.31419-.003958.314189-.004089.314189-.004223.314189-.004361.314189-.004503.31419-.00465.314189-.0048.314189-.004956.314189-.005116.314189-.00528.31419-.00545.314189-.005624.314189-.005803.314189-.005988.314189-.006178.314189-.006374.31419-.006574.314189-.006781.314189-.006994.314189-.007213.314189-.007437.31419-.007669.314189-.007906.314189-.008151.314189-.008403.314189-.00866.31419-.008926.314189-.009198.314189-.009479.314189-.009766.314189-.010063.314189-.010366.31419-.010678.314189-.010999.314189-.011328.314189-.011666.314189-.012012.31419-.012369.314189-.012735.314189-.01311.314189-.013495.314189-.01389.31419-.014296.314189-.014712.314189-.015139.314189-.015577.314189-.016026.31419-.016487.314189-.016959.314189-.017444.314189-.01794.314189-.01845.314189-.018971.31419-.019507.314189-.020055.314189-.020618.314189-.021193.314189-.021783.31419-.022387.314189-.023007.314189-.023641.314189-.02429.314189-.024956.31419-.025637.314189-.026334.314189-.027049.314189-.027779.314189-.028527.314189-.029293.31419-.030076.314189-.030878.314189-.031699.314189-.032537.314189-.033396.31419-.034274.314189-.035172.314189-.03609.314189-.03703.314189-.037989.31419-.03897.314189-.039974.314189-.040998.314189-.042047.314189-.043118.31419-.044211.314189-.045329.314189-.046471.314189-.047638.314189-.048829.314189-.050045.31419-.051287.314189-.052556.314189-.053851.314189-.055172.314189-.056522.31419-.057898.314189-.059304.314189-.060737.314189-.0622.314189-.063693.31419-.065214.314189-.066767.314189-.06835.314189-.069965.314189-.071611.314189-.073289.31419-.075.314189-.076743.314189-.078521.314189-.080332.314189-.082176.31419-.084057.314189-.085972.314189-.087922.314189-.08991.314189-.091932.31419-.093993.314189-.096091.314189-.098226.314189-.1004.314189-.102612.31419-.104864.314189-.107155.314189-.109486.314189-.111857.314189-.11427.314189-.116724.31419-.119219.314189-.121757.314189-.124337.314189-.126959.314189-.129627.31419-.132336.314189-.135091.314189-.137889.314189-.140733.314189-.143622.31419-.146558.314189-.149538.314189-.152565.314189-.155639.314189-.158761.314189-.161929.31419-.165146.314189-.16841.314189-.171724.314189-.175085.314189-.178496.31419-.181957.314189-.185467.314189-.189027.314189-.192637.314189-.196298.31419-.200009.314189-.203772.314189-.207585.314189-.211449.314189-.215366.31419-.219335.314189-.223354.314189-.227426.314189-.231551.314189-.235727.314189-.239957.31419-.244239.314189-.248572.314189-.25296.314189-.2574.314189-.261893.31419-.266438.314189-.271037.314189-.275688.314189-.280392.314189-.28515.31419-.289958.314189-.294822.314189-.299735.314189-.304703.314189-.309723.314189-.314794.31419-.319917.314189-.325093.314189-.330319.314189-.335597.314189-.340926.31419-.346305.314189-.351736.314189-.357216.314189-.362745.314189-.368324.31419-.373952.314189-.379628.314189-.385353.314189-.391125.314189-.396944.31419-.402809.314189-.408721.314189-.414678.314189-.420679.314189-.426725.314189-.432815.31419-.438947.314189-.445121.314189-.451336.314189-.457593.314189-.463889.31419-.470224.314189-.476598.314189-.483008.314189-.489455.314189-.495937.31419-.502454.314189-.509004.314189-.515588.314189-.522202.314189-.528846.314189-.535521.31419-.542222.314189-.548952.314189-.555707.314189-.562486.314189-.569289.31419-.576115.314189-.582959.314189-.589826.314189-.596708.314189-.603608.31419-.610523.314189-.617453.314189-.624394.314189-.631346.314189-.638307.31419-.645277.314189-.652252.314189-.659232.314189-.666215.314189-.6732.314189-.680183.31419-.687165.314189-.694142.314189-.701114.314189-.708079.314189-.715034.31419-.721978.314189-.72891.314189-.735825.314189-.742724.314189-.749605.31419-.756465.314189-.763302.314189-.770114.314189-.776899.314189-.783656.314189-.790382.31419-.797074.314189-.803732.314189-.810353.314189-.816933.314189-.823473.31419-.829968.314189-.836418.314189-.84282.314189-.849171.314189-.855469.31419-.861714.314189-.867899.314189-.874027.314189-.880092.314189-.886094.31419-.892029.314189-.897895.314189-.90369.314189-.909413.314189-.915059.314189-.920628.31419-.926116.314189-.931521.314189-.936842.314189-.942075.314189-.947218.31419-.95227.314189-.957226.314189-.962086.314189-.966846.314189-.971506.31419-.976061.314189-.980511.314189-.984851.314189-.989081.314189-.993198.314189-.997199.31419-1.001083.314189-1.004847.314189-1.008487.314189-1.012005.314189-1.015395.31419-1.018657.314189-1.021786.314189-1.024784.314189-1.027645.314189-1.030369.31419-1.032953.314189-1.035395.314189-1.037695.314189-1.039847.314189-1.041852.31419-1.043707.314189-1.04541.314189-1.04696.314189-1.048354.314189-1.049591.314189-1.050668.31419-1.051584.314189-1.052337.314189-1.052926.314189-1.053349.314189-1.053603h.31419l.314189 1.053603.314189 1.053349.314189 1.052926.314189 1.052337.31419 1.051584.314189 1.050668.314189 1.049591.314189 1.048354.314189 1.04696.314189 1.04541.31419 1.043707.314189 1.041852.314189 1.039847.314189 1.037695.314189 1.035395.31419 1.032953.314189 1.030369.314189 1.027645.314189 1.024784.314189 1.021786.31419 1.018657.314189 1.015395.314189 1.012005.314189 1.008487.314189 1.004847.31419 1.001083.314189.997199.314189.993198.314189.989081.314189.984851.314189.980511.31419.976061.314189.971506.314189.966846.314189.962086.314189.957226.31419.95227.314189.947218.314189.942075.314189.936842.314189.931521.31419.926116.314189.920628.314189.915059.314189.909413.314189.90369.314189.897895.31419.892029.314189.886094.314189.880092.314189.874027.314189.867899.31419.861714.314189.855469.314189.849171.314189.84282.314189.836418.31419.829968.314189.823473.314189.816933.314189.810353.314189.803732.31419.797074.314189.790382.314189.783656.314189.776899.314189.770114.314189.763302.31419.756465.314189.749605.314189.742724.314189.735825.314189.72891.31419.721978.314189.715034.314189.708079.314189.701114.314189.694142.31419.687165.314189.680183.314189.6732.314189.666215.314189.659232.314189.652252.31419.645277.314189.638307.314189.631346.314189.624394.314189.617453.31419.610523.314189.603608.314189.596708.314189.589826.314189.582959.31419.576115.314189.569289.314189.562486.314189.555707.314189.548952.31419.542222.314189.535521.314189.528846.314189.522202.314189.515588.314189.509004.31419.502454.314189.495937.314189.489455.314189.483008.314189.476598.31419.470224.314189.463889.314189.457593.314189.451336.314189.445121.31419.438947.314189.432815.314189.426725.314189.420679.314189.414678.314189.408721.31419.402809.314189.396944.314189.391125.314189.385353.314189.379628.31419.373952.314189.368324.314189.362745.314189.357216.314189.351736.31419.346305.314189.340926.314189.335597.314189.330319.314189.325093.31419.319917.314189.314794.314189.309723.314189.304703.314189.299735.314189.294822.31419.289958.314189.28515.314189.280392.314189.275688.314189.271037.31419.266438.314189.261893.314189.2574.314189.25296.314189.248572.31419.244239.314189.239957.314189.235727.314189.231551.314189.227426.314189.223354.31419.219335.314189.215366.314189.211449.314189.207585.314189.203772.31419.200009.314189.196298.314189.192637.314189.189027.314189.185467.31419.181957.314189.178496.314189.175085.314189.171724.314189.16841.31419.165146.314189.161929.314189.158761.314189.155639.314189.152565.314189.149538.31419.146558.314189.143622.314189.140733.314189.137889.314189.135091.31419.132336.314189.129627.314189.126959.314189.124337.314189.121757.31419.119219.314189.116724.314189.11427.314189.111857.314189.109486.314189.107155.31419.104864.314189.102612.314189.1004.314189.098226.314189.096091.31419.093993.314189.091932.314189.08991.314189.087922.314189.085972.31419.084057.314189.082176.314189.080332.314189.078521.314189.076743.31419.075.314189.073289.314189.071611.314189.069965.314189.06835.314189.066767.31419.065214.314189.063693.314189.0622.314189.060737.314189.059304.31419.057898.314189.056522.314189.055172.314189.053851.314189.052556.31419.051287.314189.050045.314189.048829.314189.047638.314189.046471.314189.045329.31419.044211.314189.043118.314189.042047.314189.040998.314189.039974.31419.03897.314189.037989.314189.03703.314189.03609.314189.035172.31419.034274.314189.033396.314189.032537.314189.031699.314189.030878.31419.030076.314189.029293.314189.028527.314189.027779.314189.027049.314189.026334.31419.025637.314189.024956.314189.02429.314189.023641.314189.023007.31419.022387.314189.021783.314189.021193.314189.020618.314189.020055.31419.019507.314189.018971.314189.01845.314189.01794.314189.017444.314189.016959.31419.016487.314189.016026.314189.015577.314189.015139.314189.014712.31419.014296.314189.01389.314189.013495.314189.01311.314189.012735.31419.012369.314189.012012.314189.011666.314189.011328.314189.010999.31419.010678.314189.010366.314189.010063.314189.009766.314189.009479.314189.009198.31419.008926.314189.00866.314189.008403.314189.008151.314189.007906.31419.007669.314189.007437.314189.007213.314189.006994.314189.006781.31419.006574.314189.006374.314189.006178.314189.005988.314189.005803.314189.005624.31419.00545.314189.00528.314189.005116.314189.004956.314189.0048.31419.00465.314189.004503.314189.004361.314189.004223.314189.004089.31419.003958.314189.003832.314189.00371.314189.00359.314189.003475.31419.003363.314189.003254.314189.003149.314189.003046.314189.002947.314189.002851.31419.002757.314189.002667.314189.002579.314189.002493.314189.002412.31419.002331.314189.002253.314189.002179.314189.002106.314189.002035.31419.001967.314189.0019.314189.001837.314189.001774.314189.001714.314189.001656.31419.001599.314189.001545.314189.001491.314189.001441.314189.001391.31419.001343.314189.001296.314189.001252.314189.001208.314189.001166.31419.001125.314189.001086.314189.001047.314189.001011.314189.000975.31419.000941.314189.000908.314189.000875.314189.000844.314189.000814.314189.000785.31419.000757.314189.000729.314189.000703.314189.000678.314189.000654.31419.00063.314189.000606.314189.000585.314189.000564.314189.000542.31419.000523.314189.000504.314189.000485.314189.000468.314189.00045.314189.000433.31419.000417.314189.000402.314189.000386.314189.000373.314189.000358.31419.000345.314189.000332.314189.000319.314189.000307.314189.000296.31419.000284.314189.000274.314189.000263.314189.000253.314189.000243.31419.000234.314189.000225.314189.000217.314189.000208.314189.0002.314189.000192.31419.000185.314189.000177.314189.000171.314189.000164.314189.000157.31419.000152.314189.000145.314189.00014.314189.000134.314189.000129.31419.000123.314189.000119.314189.000114.314189.00011.314189.000105.314189.000101.31419.000096.314189.000093.314189.00009.314189.000085.314189.000082.31419.000079.314189.000076.314189.000072.314189.00007.314189.000066.31419.000064.314189.000062.314189.000059.314189.000056.314189.000054.31419.000052.314189.000049.314189.000048.314189.000046.314189.000043.314189.000042.31419.00004.314189.000039.314189.000037.314189.000035.314189.000034.31419.000032.314189.000031.314189.00003.314189.000028.314189.000028.31419.000026.314189.000025.314189.000023.314189.000023.314189.000022.314189.000021.31419.00002.314189.000019.314189.000019.314189.000017.314189.000017.31419.000016.314189.000015.314189.000015.314189.000014.314189.000013.31419.000013.314189.000012.314189.000012.314189.000011.314189.000011.31419.00001.314189.00001.314189.000009.314189.000009.314189.000009.314189.000008.31419.000008.314189.000007.314189.000007.314189.000007.314189.000006.31419.000007.314189.000005.314189.000006.314189.000005.314189.000006.31419.000004.314189.000005.314189.000005.314189.000004.314189.000004.314189.000004.31419.000003.314189.000004.314189.000003.314189.000003.314189.000003.31419.000003.314189.000003.314189.000003v.000052h-.314189-.314189-.31419-.314189-.314189-.314189-.314189-.31419-.314189-.314189-.314189-.314189-.314189-.31419-.314189-.314189-.314189-.314189-.31419-.314189-.314189-.314189-.314189-.31419-.314189-.314189-.314189-.314189-.314189-.31419-.314189-.314189-.314189-.314189-.31419-.314189-.314189-.314189-.314189-.31419-.314189-.314189-.314189-.314189-.31419-.314189-.314189-.314189-.314189-.314189-.31419-.314189-.314189-.314189-.314189-.31419-.314189-.314189-.314189-.314189-.31419-.314189-.314189-.314189-.314189-.314189-.31419-.314189-.314189-.314189-.314189-.31419-.314189-.314189-.314189-.314189-.31419-.314189-.314189-.314189-.314189-.31419-.314189-.314189-.314189-.314189-.314189-.31419-.314189-.314189-.314189-.314189-.31419-.314189-.314189-.314189-.314189-.31419-.314189-.314189-.314189-.314189-.314189-.31419-.314189-.314189-.314189-.314189-.31419-.314189-.314189-.314189-.314189-.31419-.314189-.314189-.314189-.314189-.31419-.314189-.314189-.314189-.314189-.314189-.31419-.314189-.314189-.314189-.314189-.31419-.314189-.314189-.314189-.314189-.31419-.314189-.314189-.314189-.314189-.314189-.31419-.314189-.314189-.314189-.314189-.31419-.314189-.314189-.314189-.314189-.31419-.314189-.314189-.314189-.314189-.31419-.314189-.314189-.314189-.314189-.314189-.31419-.314189-.314189-.314189-.314189-.31419-.314189-.314189-.314189-.314189-.31419-.314189-.314189-.314189-.314189-.314189-.31419-.314189-.314189-.314189-.314189-.31419-.314189-.314189-.314189-.314189-.31419-.314189-.314189-.314189-.314189-.31419-.314189-.314189-.314189-.314189-.314189-.31419-.314189-.314189-.314189-.314189-.31419-.314189-.314189-.314189-.314189-.31419-.314189-.314189-.314189-.314189-.314189-.31419-.314189-.314189-.314189-.314189-.31419-.314189-.314189-.314189-.314189-.31419-.314189-.314189-.314189-.314189-.31419-.314189-.314189-.314189-.314189-.314189-.31419-.314189-.314189-.314189-.314189-.31419-.314189-.314189-.314189-.314189-.31419-.314189-.314189-.314189-.314189-.314189-.31419-.314189-.314189-.314189-.314189-.31419-.314189-.314189-.314189-.314189-.31419-.314189-.314189-.314189-.314189-.31419-.314189-.314189-.314189-.314189-.314189-.31419-.314189-.314189-.314189-.314189-.31419-.314189-.314189-.314189-.314189-.31419-.314189-.314189-.314189-.314189-.314189-.31419-.314189-.314189-.314189-.314189-.31419-.314189-.314189-.314189-.314189-.31419-.314189-.314189-.314189-.314189-.31419-.314189-.314189-.314189-.314189-.314189-.31419-.314189-.314189-.314189-.314189-.31419-.314189-.314189-.314189-.314189-.31419-.314189-.314189-.314189-.314189-.314189-.31419-.314189-.314189-.314189-.314189-.31419-.314189-.314189-.314189-.314189-.31419-.314189-.314189-.314189-.314189-.31419-.314189-.314189-.314189-.314189-.314189-.31419-.314189-.314189-.314189-.314189-.31419-.314189-.314189-.314189-.314189-.31419-.314189-.314189-.314189-.314189-.314189-.31419-.314189-.314189-.314189-.314189-.31419-.314189-.314189-.314189-.314189-.31419-.314189-.314189-.314189-.314189-.31419-.314189-.314189-.314189-.314189-.314189-.31419-.314189-.314189-.314189-.314189-.31419-.314189-.314189-.314189-.314189-.31419-.314189-.314189-.314189-.314189-.314189-.31419-.314189-.314189-.314189-.314189-.31419-.314189-.314189-.314189-.314189-.31419-.314189-.314189-.314189-.314189-.31419-.314189-.314189-.314189-.314189-.314189-.31419-.314189-.314189-.314189-.314189-.31419-.314189-.314189-.314189-.314189-.31419-.314189-.314189-.314189-.314189-.314189-.31419-.314189-.314189-.314189-.314189-.31419-.314189-.314189-.314189-.314189-.31419-.314189-.314189-.314189-.314189-.31419-.314189-.314189-.314189-.314189-.314189-.31419-.314189-.314189-.314189-.314189-.31419-.314189-.314189-.314189-.314189-.31419-.314189-.314189-.314189-.314189-.314189-.31419-.314189-.314189-.314189-.314189-.31419-.314189-.314189-.314189-.314189-.31419-.314189-.314189-.314189-.314189-.31419-.314189-.314189-.314189-.314189-.314189-.31419-.314189-.314189-.314189-.314189-.31419-.314189-.314189-.314189-.314189-.31419-.314189-.314189-.314189-.314189-.314189-.31419-.314189-.314189-.314189-.314189-.31419-.314189-.314189-.314189-.314189-.31419-.314189-.314189-.314189-.314189-.31419-.314189-.314189-.314189-.314189-.314189-.31419-.314189-.314189-.314189-.314189-.31419-.314189-.314189-.314189-.314189-.31419-.314189-.314189-.314189-.314189-.314189-.31419-.314189-.314189-.314189-.314189-.31419-.314189-.314189-.314189-.314189-.31419-.314189-.314189-.314189-.314189-.31419-.314189-.314189-.314189-.314189-.314189-.31419-.314189-.314189-.314189-.314189-.31419-.314189-.314189-.314189-.314189-.31419-.314189-.314189-.314189-.314189-.314189-.31419-.314189-.314189-.314189-.314189-.31419-.314189-.314189-.314189-.314189-.31419-.314189-.314189-.314189-.314189-.31419-.314189-.314189-.314189-.314189-.314189-.31419-.314189-.314189-.314189-.314189-.31419-.314189-.314189-.314189-.314189-.31419-.314189-.314189-.314189-.314189-.314189-.31419-.314189-.314189-.314189-.314189-.31419-.314189-.314189-.314189-.314189-.31419-.314189-.314189-.314189-.314189-.31419-.314189-.314189-.314189-.314189-.314189-.31419-.314189-.314189-.314189-.314189-.31419-.314189-.314189-.314189-.314189-.31419-.314189-.314189-.314189-.314189-.314189-.31419-.314189-.314189-.314189-.314189-.31419-.314189-.314189-.314189-.314189-.31419-.314189-.314189-.314189-.314189-.31419-.314189-.314189-.314189-.314189-.314189-.31419-.314189-.314189-.314189-.314189-.31419-.314189-.314189-.314189-.314189-.31419-.314189-.314189-.314189-.314189-.314189-.31419-.314189-.314189-.314189-.314189-.31419-.314189-.314189-.314189-.314189-.31419-.314189-.314189-.314189-.314189-.31419-.314189-.314189-.314189-.314189-.314189-.31419-.314189-.314189-.314189-.314189-.31419-.314189-.314189-.314189-.314189-.31419-.314189-.314189-.314189-.314189-.314189-.31419-.314189-.314189-.314189-.314189-.31419-.314189-.314189-.314189-.314189-.31419-.314189-.314189-.314189-.314189-.31419-.314189-.314189-.314189-.314189-.314189-.31419-.314189-.314189-.314189-.314189-.31419-.314189-.314189-.314189-.314189-.31419-.314189-.314189-.314189-.314189-.314189-.31419-.314189-.314189-.314189-.314189-.31419-.314189-.314189-.314189-.314189-.31419-.314189-.314189-.314189-.314189-.31419-.314189-.314189-.314189-.314189-.314189-.31419-.314189-.314189-.314189-.314189-.31419-.314189-.314189-.314189-.314189-.31419-.314189-.314189-.314189-.314189-.314189-.31419-.314189-.314189-.314189-.314189-.31419-.314189-.314189-.314189-.314189-.31419-.314189-.314189-.314189-.314189-.31419-.314189-.314189-.314189-.314189-.314189-.31419-.314189-.314189-.314189-.314189-.31419-.314189-.314189-.314189-.314189-.31419-.314189-.314189-.314189-.314189-.314189-.31419-.314189-.314189-.314189-.314189-.31419-.314189-.314189-.314189-.314189-.31419-.314189-.314189-.314189-.314189-.31419-.314189-.314189-.314189-.314189-.314189-.31419-.314189-.314189-.314189-.314189-.31419-.314189-.314189-.314189-.314189-.31419-.314189-.314189-.314189-.314189-.314189-.31419-.314189-.314189-.314189-.314189-.31419-.314189-.314189-.314189-.314189-.31419-.314189-.314189-.314189-.314189-.31419-.314189-.314189-.314189-.314189-.314189-.31419-.314189-.314189-.314189-.314189-.31419-.314189-.314189-.314189-.314189-.31419-.314189-.314189-.314189-.314189-.314189-.31419-.314189-.314189-.314189-.314189-.31419-.314189-.314189-.314189-.314189-.31419-.314189-.314189-.314189-.314189-.31419-.314189-.314189-.314189-.314189-.314189-.31419-.314189-.314189-.314189-.314189-.31419-.314189-.314189-.314189-.314189-.31419-.314189-.314189-.314189-.314189-.314189-.31419-.314189-.314189-.314189-.314189-.31419-.314189-.314189-.314189-.314189-.31419-.314189-.314189-.314189-.314189-.31419-.314189-.314189-.314189-.314189-.314189-.31419-.314189-.314189-.314189-.314189-.31419-.314189-.314189-.314189-.314189-.31419-.314189-.314189-.314189-.314189-.314189-.31419-.314189-.314189-.314189-.314189-.31419-.314189z" fill="#2ca02c" fill-opacity=".3" stroke="#2ca02c" stroke-opacity=".3"/><g fill="none" stroke-linecap="square" stroke-width="12"><path clip-path="url(#a)" d="m-1 203.000542 2.306419-2.0876 2.513513-2.581072 2.513514-2.925259 2.513513-3.294496 2.513514-3.686716 2.513513-4.099007 2.513514-4.527556 2.513514-4.967616 2.827702-6.121582 2.827703-6.683957 2.827703-7.23247 3.141892-8.645733 3.456081-10.182727 4.084459-12.792982 5.341216-17.572405 9.739865-32.217846 3.77027-11.60872 3.141892-8.933304 2.513514-6.525622 2.199324-5.178543 2.199324-4.622735 1.885136-3.480469 1.885135-3.004712 1.570946-2.121985 1.570946-1.761188 1.570946-1.389832 1.256756-.838786 1.256757-.592464 1.256757-.343842 1.256757-.093881 1.256756.156444 1.256757.40616 1.256757.654298 1.256757.899895 1.256756 1.142008 1.570946 1.761188 1.570946 2.121985 1.570946 2.470152 1.885135 3.403108 1.885135 3.854786 2.199325 5.025352 2.513513 6.371111 2.827703 7.860104 3.141892 9.433852 4.084459 13.058561 6.912163 23.044257 6.283783 20.636407 4.08446 12.679136 3.456081 10.061362 3.141892 8.521051 3.141892 7.86891 2.827702 6.497411 2.827703 5.933177 2.513514 4.801586 2.513513 4.365225 2.513514 3.942268 2.513513 3.537105 2.513514 3.15321 2.513513 2.793168 2.513514 2.458745 2.513513 2.150958 2.513514 1.870161 2.513513 1.616143 2.827703 1.546975 2.827703 1.293971 3.141891 1.181391 3.141892.951922 3.456081.826811 4.08446.737308 4.712838.602707 5.341216.451066 6.912162.342786 9.425676.219985 15.709459.107866 1.99223.00452" stroke="#1f77b4"/><path clip-path="url(#a)" d="m-1 215.702027 19.901014-.147141 9.425675-.271945 6.597973-.392372 5.341216-.528716 4.398649-.645324 3.77027-.757433 3.456081-.905854 3.141892-1.038954 3.141892-1.284672 2.827703-1.402168 2.827703-1.6707 2.513513-1.739838 2.513514-2.007186 2.513513-2.301485 2.513514-2.622674 2.513513-2.970079 2.513514-3.342318 2.513513-3.737224 2.513514-4.151774 2.513513-4.582042 2.513514-5.02316 2.827702-6.184364 2.827703-6.745822 3.141892-8.134809 3.141892-8.76808 3.456081-10.300454 4.084459-12.90107 5.655406-18.699594 8.483108-28.061741 3.77027-11.675991 3.141892-9.010537 2.513514-6.600737 2.513513-5.96044 2.199324-4.622735 1.885136-3.480469 1.885135-3.004712 1.570946-2.121985 1.570946-1.761188 1.570946-1.389832 1.256756-.838786 1.256757-.592464 1.256757-.343842 1.256757-.093881 1.256756.156444 1.256757.40616 1.256757.654298 1.256757.899895 1.256756 1.142008 1.570946 1.761188 1.570946 2.121985 1.570946 2.470152 1.885135 3.403108 1.885135 3.854786 2.199325 5.025352 2.513513 6.371111 2.827703 7.860104 3.141892 9.433852 4.084459 13.058561 6.912163 23.044257 6.283783 20.636407 4.08446 12.679136 3.456081 10.061362 3.141892 8.521051 3.141892 7.86891 2.827702 6.497411 2.827703 5.933177 2.513514 4.801586 2.513513 4.365225 2.513514 3.942268 2.513513 3.537105 2.513514 3.15321 2.513513 2.793168 2.513514 2.458745 1.363851 1.203085" stroke="#ff7f0e"/></g></g></g></svg>